<?xml version="1.0" encoding="UTF-8" standalone="no"?>
<svg
   xmlns:dc="http://purl.org/dc/elements/1.1/"
   xmlns:cc="http://creativecommons.org/ns#"
   xmlns:rdf="http://www.w3.org/1999/02/22-rdf-syntax-ns#"
   xmlns:svg="http://www.w3.org/2000/svg"
   xmlns="http://www.w3.org/2000/svg"
   xmlns:sodipodi="http://sodipodi.sourceforge.net/DTD/sodipodi-0.dtd"
   xmlns:inkscape="http://www.inkscape.org/namespaces/inkscape"
   id="Layer_1_1_"
   version="1.1"
   viewBox="0 0 512 512"
   xml:space="preserve"
   sodipodi:docname="browser (1)-512x512.svg"
   width="512"
   height="512"
   inkscape:version="0.92.4 (5da689c313, 2019-01-14)"><metadata
     id="metadata21"><rdf:RDF><cc:Work
         rdf:about=""><dc:format>image/svg+xml</dc:format><dc:type
           rdf:resource="http://purl.org/dc/dcmitype/StillImage" /><dc:title></dc:title></cc:Work></rdf:RDF></metadata><defs
     id="defs19" /><sodipodi:namedview
     pagecolor="#ffffff"
     bordercolor="#666666"
     borderopacity="1"
     objecttolerance="10"
     gridtolerance="10"
     guidetolerance="10"
     inkscape:pageopacity="0"
     inkscape:pageshadow="2"
     inkscape:window-width="1366"
     inkscape:window-height="705"
     id="namedview17"
     showgrid="false"
     inkscape:zoom="0.65186406"
     inkscape:cx="188.30722"
     inkscape:cy="227.76516"
     inkscape:window-x="-8"
     inkscape:window-y="-8"
     inkscape:window-maximized="1"
     inkscape:current-layer="Layer_1_1_" /><g
     id="g14"
     transform="scale(8)"><path
       d="M 55,26.991 V 1 H 1 v 43 h 6 v 13 c 0,3.309 2.691,6 6,6 3.309,0 6,-2.691 6,-6 V 54 52 44 H 38.782 L 20.665,63 H 63 V 18.602 Z M 9.804,22 13,16.887 16.196,22 Z M 13,61 C 11.142,61 9.589,59.721 9.142,58 h 7.716 c -0.447,1.721 -2,3 -3.858,3 z m 4,-5 H 9 v -2 h 8 z m -3,-4 v -2 h -2 v 2 H 9 V 24 h 3 v 24 h 2 V 24 h 3 V 52 Z M 19,42 V 22.713 l -6,-9.6 -6,9.6 V 42 H 3 V 11 H 49 V 9 H 3 V 3 h 50 v 6 h -2 v 2 h 2 v 18 h 0.085 L 40.689,42 Z M 61,61 H 25.335 L 61,23.598 Z"
       style="fill:#3f3a34"
       id="path2"
       inkscape:connector-curvature="0" /><path
       d="M 57,57 V 34.49 L 35.675,57 Z M 55,55 H 40.325 L 55,39.51 Z"
       style="fill:#3f3a34"
       id="path4"
       inkscape:connector-curvature="0" /><rect
       height="2"
       style="fill:#3f3a34"
       width="2"
       x="5"
       y="5"
       id="rect6" /><rect
       height="2"
       style="fill:#3f3a34"
       width="2"
       x="9"
       y="5"
       id="rect8" /><rect
       height="2"
       style="fill:#3f3a34"
       width="2"
       x="13"
       y="5"
       id="rect10" /><path
       d="m 34,13 c -7.168,0 -13,5.832 -13,13 0,7.168 5.832,13 13,13 7.168,0 13,-5.832 13,-13 C 47,18.832 41.168,13 34,13 Z M 23,26 c 0,-5.728 4.402,-10.442 10,-10.949 v 12.403 l 8.014,7.012 C 39.108,36.047 36.664,37 34,37 27.935,37 23,32.065 23,26 Z M 42.433,33.05 35,26.546 V 15.051 c 5.598,0.507 10,5.221 10,10.949 0,2.681 -0.967,5.139 -2.567,7.05 z"
       style="fill:#3f3a34"
       id="path12"
       inkscape:connector-curvature="0" /></g></svg>