<?xml version="1.0" encoding="UTF-8" standalone="no"?>
<svg
   xmlns:dc="http://purl.org/dc/elements/1.1/"
   xmlns:cc="http://creativecommons.org/ns#"
   xmlns:rdf="http://www.w3.org/1999/02/22-rdf-syntax-ns#"
   xmlns:svg="http://www.w3.org/2000/svg"
   xmlns="http://www.w3.org/2000/svg"
   width="32"
   height="32"
   viewBox="0 0 8.4666662 8.4666669"
   version="1.1"
   id="svg8">
  <defs
     id="defs2" />
  <metadata
     id="metadata5">
    <rdf:RDF>
      <cc:Work
         rdf:about="">
        <dc:format>image/svg+xml</dc:format>
        <dc:type
           rdf:resource="http://purl.org/dc/dcmitype/StillImage" />
        <dc:title></dc:title>
      </cc:Work>
    </rdf:RDF>
  </metadata>
  <g
     transform="matrix(0.0625,0,0,0.0625,0,1.9375002e-6)"
     id="g70">
    <g
       style="display:inline"
       id="layer3">
      <rect
         y="8.2020836"
         x="8.2020836"
         height="119.0625"
         width="119.0625"
         id="rect137"
         style="display:inline;opacity:0.97000002;fill:#e4eaf6;fill-opacity:1;stroke:none;stroke-width:0.66932517;stroke-opacity:1" />
    </g>
    <g
       style="display:inline"
       id="layer2">
      <g
         transform="matrix(4.2333333,0,0,4.2333333,0,1.0666666e-6)"
         id="Browser"
         data-name="Browser">
        <rect
           style="fill:none;stroke:#000000;stroke-width:2px;stroke-linejoin:round"
           id="rect8"
           y="1"
           x="1"
           width="30"
           height="30"
           class="cls-1" />
        <line
           style="fill:none;stroke:#000000;stroke-width:2px;stroke-linejoin:round"
           id="line12"
           y2="5"
           y1="5"
           x2="6"
           x1="4"
           class="cls-1" />
        <line
           style="fill:none;stroke:#000000;stroke-width:2px;stroke-linejoin:round"
           id="line14"
           y2="5"
           y1="5"
           x2="10"
           x1="8"
           class="cls-1" />
        <line
           style="fill:none;stroke:#000000;stroke-width:2px;stroke-linejoin:round"
           id="line16"
           y2="5"
           y1="5"
           x2="14"
           x1="12"
           class="cls-1" />
        <rect
           y="8.0124998"
           x="27.98"
           height="2"
           width="2.55"
           id="rect118"
           style="opacity:0.97000002;fill:#000000;fill-opacity:1;stroke:none;stroke-width:0.07447544;stroke-opacity:1" />
        <rect
           y="8.0124998"
           x="1.5"
           height="2"
           width="24.5"
           id="rect120"
           style="opacity:0.97000002;fill:#000000;fill-opacity:1;stroke:none;stroke-width:0.46086159;stroke-opacity:1" />
      </g>
    </g>
    <g
       style="display:inline"
       id="layer4">
      <g
         id="SVG Text"
         transform="matrix(0.21244553,0,0,0.21244553,4.5425434,27.818616)">
        <path
           id="path955"
           d="M 353.103,229.517 V 105.931 c 0,-9.75 -7.904,-17.655 -17.655,-17.655 h -220.69 -70.62 c -9.751,0 -17.655,7.905 -17.655,17.655 v 123.586 c 0,9.75 7.904,17.655 17.655,17.655 h 70.621 220.69 c 9.75,0 17.654,-7.905 17.654,-17.655 z M 114.759,211.862 H 70.621 c -4.875,0 -8.828,-3.948 -8.828,-8.828 0,-4.88 3.953,-8.828 8.828,-8.828 h 44.138 c 4.866,0 8.828,-3.957 8.828,-8.828 0,-4.871 -3.961,-8.828 -8.828,-8.828 H 88.276 c -14.603,0 -26.483,-11.88 -26.483,-26.483 0,-14.603 11.88,-26.483 26.483,-26.483 h 35.31 c 4.875,0 8.828,3.948 8.828,8.828 0,4.879 -3.953,8.828 -8.828,8.828 h -35.31 c -4.866,0 -8.828,3.957 -8.828,8.828 0,4.871 3.961,8.828 8.828,8.828 h 26.483 c 14.603,0 26.483,11.88 26.483,26.483 0,14.603 -11.88,26.483 -26.483,26.483 z m 114.496,-77.31 -14.444,57.775 c -2.876,11.5 -13.164,19.534 -25.017,19.534 -11.853,0 -22.142,-8.034 -25.017,-19.534 l -14.444,-57.775 c -1.181,-4.724 1.694,-9.517 6.422,-10.698 4.724,-1.19 9.522,1.681 10.707,6.422 l 14.444,57.775 c 0.905,3.62 4.151,6.155 7.887,6.155 3.736,0 6.983,-2.535 7.887,-6.155 l 14.444,-57.775 c 1.185,-4.742 6.001,-7.612 10.707,-6.422 4.73,1.181 7.604,5.973 6.424,10.698 z m 88.538,42 c 0,19.474 -15.84,35.31 -35.31,35.31 h -8.828 c -19.47,0 -35.31,-15.837 -35.31,-35.31 v -17.655 c 0,-19.474 15.84,-35.31 35.31,-35.31 h 8.828 c 10.035,0 19.629,4.294 26.319,11.767 3.25,3.638 2.935,9.216 -0.698,12.466 -3.634,3.258 -9.207,2.94 -12.466,-0.69 -3.34,-3.742 -8.138,-5.888 -13.155,-5.888 h -8.828 c -9.737,0 -17.655,7.923 -17.655,17.655 v 17.655 c 0,9.732 7.918,17.655 17.655,17.655 h 8.828 c 9.737,0 17.655,-7.923 17.655,-17.655 h -17.655 c -4.875,0 -8.828,-3.948 -8.828,-8.828 0,-4.88 3.953,-8.828 8.828,-8.828 h 26.483 c 4.875,0 8.828,3.948 8.828,8.828 v 8.828 z"
           style="fill:#464655;fill-opacity:1" />
        <path
           style="fill:#ff9646;fill-opacity:1"
           d="m 88.275391,123.58594 c -14.603,0 -26.482422,11.87942 -26.482422,26.48242 0,14.603 11.879422,26.48242 26.482422,26.48242 h 26.484379 c 4.866,0 8.82812,3.95713 8.82812,8.82813 0,4.871 -3.96112,8.82812 -8.82812,8.82812 H 70.621094 c -4.875,0 -8.828125,3.94813 -8.828125,8.82813 0,4.88 3.953125,8.82812 8.828125,8.82812 h 44.138676 c 14.603,0 26.48242,-11.87942 26.48242,-26.48242 0,-14.603 -11.87942,-26.48438 -26.48242,-26.48438 H 88.275391 c -4.866,0 -8.828125,-3.95712 -8.828125,-8.82812 0,-4.871 3.961125,-8.82813 8.828125,-8.82813 h 35.310549 c 4.875,0 8.82812,-3.94812 8.82812,-8.82812 0,-4.879 -3.95312,-8.82617 -8.82812,-8.82617 z m 185.378909,0.002 c -19.47,0 -35.3086,15.83755 -35.3086,35.31055 v 17.65429 c 0,19.474 15.8386,35.31055 35.3086,35.31055 h 8.82812 c 19.47,0 35.31055,-15.83755 35.31055,-35.31055 v -8.82812 c 0,-4.88 -3.95117,-8.82813 -8.82617,-8.82813 h -26.48438 c -4.875,0 -8.82812,3.94813 -8.82812,8.82813 0,4.88 3.95312,8.82812 8.82812,8.82812 h 17.65625 c 0,9.732 -7.91925,17.6543 -17.65625,17.6543 h -8.82812 c -9.737,0 -17.6543,-7.9223 -17.6543,-17.6543 v -17.65429 c 0,-9.732 7.9173,-17.65625 17.6543,-17.65625 h 8.82812 c 5.017,0 9.81625,2.14667 13.15625,5.88867 3.258,3.629 8.83085,3.94745 12.46485,0.68945 3.634,-3.25 3.94921,-8.82684 0.69921,-12.46484 -6.69,-7.474 -16.28631,-11.76758 -26.32031,-11.76758 z m -115.13086,0.006 c -0.58561,0.0262 -1.17708,0.11102 -1.76758,0.25977 -4.728,1.181 -7.60583,5.97326 -6.42383,10.69726 l 14.44531,57.77539 c 2.874,11.501 13.16263,19.53516 25.01563,19.53516 11.853,0 22.14258,-8.03516 25.01758,-19.53516 l 14.44336,-57.77344 c 1.181,-4.725 -1.69383,-9.51721 -6.42383,-10.69921 -4.707,-1.19 -9.52203,1.68087 -10.70703,6.42187 l -14.44336,57.77539 c -0.905,3.62 -4.15072,6.1543 -7.88672,6.1543 -3.736,0 -6.98272,-2.5343 -7.88672,-6.1543 l -14.44336,-57.77539 c -1.03687,-4.14925 -4.84017,-6.86468 -8.93945,-6.68164 z"
           id="path961" />
      </g>
    </g>
    <g
       style="display:inline"
       id="layer5">
      <path
         id="path252"
         d="m 125.2678,67.526258 c 0,-2.76572 -2.25,-5.015721 -5.01571,-5.015721 -2.17974,0 -4.03808,1.397728 -4.72804,3.34375 h -5.30323 v -1.671971 c 0,-0.924051 -0.74868,-1.67197 -1.67197,-1.67197 h -6.6875 c -0.92329,0 -1.67196,0.747728 -1.67196,1.67197 v 1.671971 h -5.303231 c -0.690152,-1.946022 -2.548298,-3.34375 -4.728033,-3.34375 -2.765721,0 -5.015722,2.250001 -5.015722,5.015721 0,2.765721 2.250001,5.015722 5.015722,5.015722 0.714016,0 1.393372,-0.151135 2.008712,-0.421022 -1.285606,1.599811 -2.282576,3.438827 -2.911743,5.436745 h -2.440721 c -0.923295,0 -1.67197,0.747727 -1.67197,1.671969 v 6.687505 c 0,0.924052 0.748675,1.671971 1.67197,1.671971 h 6.687503 c 0.923296,0 1.671972,-0.747727 1.671972,-1.671971 v -6.687505 c 0,-0.924052 -0.748676,-1.671969 -1.671972,-1.671969 h -0.696211 c 1.358333,-3.345077 4.039584,-6.026329 7.383724,-7.384283 v 0.696779 c 0,0.924054 0.74867,1.671971 1.67196,1.671971 h 6.6875 c 0.92329,0 1.67197,-0.747728 1.67197,-1.671971 v -0.696591 c 3.34414,1.358145 6.02501,4.039207 7.38316,7.384095 h -0.69641 c -0.92329,0 -1.67197,0.747727 -1.67197,1.671969 v 6.687505 c 0,0.924052 0.74868,1.671971 1.67197,1.671971 h 6.68752 c 0.92328,0 1.67196,-0.747727 1.67196,-1.671971 v -6.687505 c 0,-0.924052 -0.74868,-1.671969 -1.67196,-1.671969 h -2.44055 c -0.62898,-1.997918 -1.62594,-3.837123 -2.91155,-5.436935 0.61552,0.270266 1.29489,0.421402 2.0089,0.421402 2.76591,-1.9e-4 5.01591,-2.250191 5.01591,-5.015912 z M 91.829909,84.245207 h -3.343754 v -3.343752 h 3.343754 z m 30.093191,0 h -3.34375 v -3.343752 h 3.34375 z m -6.26572,-14.710614 c -0.14224,-0.114396 -0.28618,-0.226706 -0.43219,-0.336554 h 0.29867 c 0.0408,0.114205 0.0852,0.226516 0.13352,0.336554 z M 94.886159,69.19823 h 0.298485 c -0.145832,0.109657 -0.289584,0.221967 -0.431818,0.336174 0.04849,-0.110038 0.09281,-0.22216 0.133333,-0.336174 z m -4.728033,0 c -0.92159,0 -1.671971,-0.749434 -1.671971,-1.671972 0,-0.922538 0.750189,-1.671971 1.671971,-1.671971 0.921782,0 1.67197,0.749433 1.67197,1.671971 -1.87e-4,0.922538 -0.750379,1.671972 -1.67197,1.671972 z m 16.718954,0 h -3.34394 v -3.343752 h 3.34375 v 3.343752 z m 11.70322,-1.671972 c 0,-0.922538 0.75019,-1.671971 1.67197,-1.671971 0.92178,0 1.67196,0.749433 1.67196,1.671971 0,0.922538 -0.75018,1.671972 -1.67196,1.671972 -0.92178,0 -1.67197,-0.749434 -1.67197,-1.671972 z"
         style="fill:#464655;fill-opacity:1;stroke-width:0.18939404" />
    </g>
    <g
       style="display:inline"
       id="layer6">
      <g
         id="Tools Text">
        <rect
           style="display:inline;opacity:0.97000002;fill:#00bbff;fill-opacity:1;stroke:#00bbff;stroke-width:1.30071485;stroke-linejoin:round;stroke-miterlimit:4;stroke-dasharray:none;stroke-opacity:0.80904523;paint-order:normal"
           id="rect30"
           width="114.05518"
           height="30.23193"
           x="11.124365"
           y="92.474045"
           ry="2.1799395"
           rx="1.8646061" />
        <text
           xml:space="preserve"
           style="font-style:normal;font-variant:normal;font-weight:normal;font-stretch:normal;font-size:27.83177948px;line-height:1.25;font-family:'FROSTBITE Narrow';-inkscape-font-specification:'FROSTBITE Narrow';letter-spacing:0px;word-spacing:0px;fill:#000000;fill-opacity:1;stroke:none;stroke-width:0.23193146"
           x="14.7561"
           y="117.96499"
           id="text27"
           transform="scale(0.99648748,1.0035249)"><tspan
             id="tspan25"
             x="14.7561"
             y="117.96499"
             style="font-size:29.6491394px;fill:#000000;stroke-width:0.23193146">TOOLS</tspan></text>
      </g>
    </g>
  </g>
</svg>
